<mxfile host="app.diagrams.net" agent="Mozilla/5.0 (Windows NT 10.0; Win64; x64) AppleWebKit/537.36 (KHTML, like Gecko) Chrome/135.0.0.0 Safari/537.36" version="26.2.14">
  <diagram id="C5RBs43oDa-KdzZeNtuy" name="Page-1">
    <mxGraphModel dx="563" dy="1454" grid="1" gridSize="10" guides="1" tooltips="1" connect="1" arrows="1" fold="1" page="1" pageScale="1" pageWidth="827" pageHeight="1169" math="0" shadow="0">
      <root>
        <mxCell id="WIyWlLk6GJQsqaUBKTNV-0" />
        <mxCell id="WIyWlLk6GJQsqaUBKTNV-1" parent="WIyWlLk6GJQsqaUBKTNV-0" />
        <mxCell id="WIyWlLk6GJQsqaUBKTNV-2" value="" style="rounded=0;html=1;jettySize=auto;orthogonalLoop=1;fontSize=11;endArrow=block;endFill=0;endSize=8;strokeWidth=1;shadow=0;labelBackgroundColor=none;edgeStyle=orthogonalEdgeStyle;exitX=0.5;exitY=1;exitDx=0;exitDy=0;exitPerimeter=0;" parent="WIyWlLk6GJQsqaUBKTNV-1" source="gfhurY05JhWp2dZjsDzm-2" target="gfhurY05JhWp2dZjsDzm-20" edge="1">
          <mxGeometry relative="1" as="geometry">
            <mxPoint x="210" y="70" as="sourcePoint" />
            <mxPoint x="190" y="152.4737066968085" as="targetPoint" />
            <Array as="points">
              <mxPoint x="150" y="40" />
              <mxPoint x="150" y="40" />
            </Array>
          </mxGeometry>
        </mxCell>
        <mxCell id="gfhurY05JhWp2dZjsDzm-19" value="" style="group" vertex="1" connectable="0" parent="WIyWlLk6GJQsqaUBKTNV-1">
          <mxGeometry x="80" y="-80" width="140" height="80" as="geometry" />
        </mxCell>
        <mxCell id="gfhurY05JhWp2dZjsDzm-2" value="&#xa;&lt;pre style=&quot;forced-color-adjust: none; color: rgb(0, 0, 0); font-style: normal; font-variant-ligatures: normal; font-variant-caps: normal; font-weight: 400; letter-spacing: normal; orphans: 2; text-align: center; text-indent: 0px; text-transform: none; widows: 2; word-spacing: 0px; -webkit-text-stroke-width: 0px; background-color: rgb(236, 236, 236); text-decoration-thickness: initial; text-decoration-style: initial; text-decoration-color: initial; font-family: &amp;quot;JetBrains Mono&amp;quot;, monospace; font-size: 12pt;&quot;&gt;&lt;span style=&quot;forced-color-adjust: none;&quot;&gt;&lt;font style=&quot;forced-color-adjust: none; color: light-dark(rgb(0, 0, 0), rgb(237, 237, 237));&quot; data-mx-given-colors=&quot;{&amp;quot;color&amp;quot;:&amp;quot;rgb(0, 0, 0)&amp;quot;}&quot;&gt;ReceiptTest&lt;/font&gt;&lt;/span&gt;&lt;/pre&gt;&#xa;&#xa;" style="ellipse;whiteSpace=wrap;html=1;points=[[0,0,0,0,0],[0,0.5,0,0,0],[0,1,0,0,0],[0.5,0,0,0,0],[0.5,1,0,0,0],[1,0,0,0,0],[1,0.5,0,0,0],[1,1,0,0,0]];" vertex="1" parent="gfhurY05JhWp2dZjsDzm-19">
          <mxGeometry y="20" width="140" height="60" as="geometry" />
        </mxCell>
        <mxCell id="gfhurY05JhWp2dZjsDzm-0" value="main" style="text;strokeColor=none;align=center;fillColor=none;html=1;verticalAlign=middle;whiteSpace=wrap;rounded=0;" vertex="1" parent="gfhurY05JhWp2dZjsDzm-19">
          <mxGeometry x="40" y="50" width="60" height="30" as="geometry" />
        </mxCell>
        <mxCell id="gfhurY05JhWp2dZjsDzm-23" value="" style="edgeStyle=none;rounded=0;orthogonalLoop=1;jettySize=auto;html=1;" edge="1" parent="WIyWlLk6GJQsqaUBKTNV-1" source="gfhurY05JhWp2dZjsDzm-20" target="gfhurY05JhWp2dZjsDzm-22">
          <mxGeometry relative="1" as="geometry" />
        </mxCell>
        <mxCell id="gfhurY05JhWp2dZjsDzm-20" value="設定輸入輸出檔案路徑、&lt;div&gt;圖片路徑與date&lt;/div&gt;" style="whiteSpace=wrap;html=1;" vertex="1" parent="WIyWlLk6GJQsqaUBKTNV-1">
          <mxGeometry x="80" y="70" width="180" height="60" as="geometry" />
        </mxCell>
        <mxCell id="gfhurY05JhWp2dZjsDzm-25" value="" style="edgeStyle=none;rounded=0;orthogonalLoop=1;jettySize=auto;html=1;" edge="1" parent="WIyWlLk6GJQsqaUBKTNV-1" source="gfhurY05JhWp2dZjsDzm-22" target="gfhurY05JhWp2dZjsDzm-26">
          <mxGeometry relative="1" as="geometry">
            <mxPoint x="170" y="290" as="targetPoint" />
          </mxGeometry>
        </mxCell>
        <mxCell id="gfhurY05JhWp2dZjsDzm-22" value="提取收據頁面&lt;div&gt;兩頁一組的第二頁&lt;/div&gt;&lt;div&gt;OrderUtils.extractReceiptPages&lt;/div&gt;" style="whiteSpace=wrap;html=1;" vertex="1" parent="WIyWlLk6GJQsqaUBKTNV-1">
          <mxGeometry x="60" y="170" width="220" height="60" as="geometry" />
        </mxCell>
        <mxCell id="gfhurY05JhWp2dZjsDzm-28" value="" style="edgeStyle=none;rounded=0;orthogonalLoop=1;jettySize=auto;html=1;" edge="1" parent="WIyWlLk6GJQsqaUBKTNV-1" source="gfhurY05JhWp2dZjsDzm-26" target="gfhurY05JhWp2dZjsDzm-27">
          <mxGeometry relative="1" as="geometry" />
        </mxCell>
        <mxCell id="gfhurY05JhWp2dZjsDzm-26" value="判斷是不是有偶數頁" style="rhombus;whiteSpace=wrap;html=1;" vertex="1" parent="WIyWlLk6GJQsqaUBKTNV-1">
          <mxGeometry x="110" y="300" width="120" height="100" as="geometry" />
        </mxCell>
        <mxCell id="gfhurY05JhWp2dZjsDzm-30" value="" style="edgeStyle=none;rounded=0;orthogonalLoop=1;jettySize=auto;html=1;" edge="1" parent="WIyWlLk6GJQsqaUBKTNV-1" source="gfhurY05JhWp2dZjsDzm-27" target="gfhurY05JhWp2dZjsDzm-29">
          <mxGeometry relative="1" as="geometry" />
        </mxCell>
        <mxCell id="gfhurY05JhWp2dZjsDzm-27" value="載入PDF&lt;div&gt;PDDocument.load&lt;/div&gt;" style="whiteSpace=wrap;html=1;" vertex="1" parent="WIyWlLk6GJQsqaUBKTNV-1">
          <mxGeometry x="110" y="500" width="120" height="60" as="geometry" />
        </mxCell>
        <mxCell id="gfhurY05JhWp2dZjsDzm-32" value="" style="edgeStyle=none;rounded=0;orthogonalLoop=1;jettySize=auto;html=1;exitX=1;exitY=0.5;exitDx=0;exitDy=0;entryX=0.156;entryY=1.025;entryDx=0;entryDy=0;entryPerimeter=0;" edge="1" parent="WIyWlLk6GJQsqaUBKTNV-1" source="gfhurY05JhWp2dZjsDzm-29">
          <mxGeometry relative="1" as="geometry">
            <mxPoint x="253.23" y="634.2500000000002" as="sourcePoint" />
            <mxPoint x="329" y="85.75" as="targetPoint" />
            <Array as="points">
              <mxPoint x="300" y="675" />
              <mxPoint x="293.23" y="154.25" />
              <mxPoint x="290" y="150" />
              <mxPoint x="290" y="140" />
              <mxPoint x="290" y="86" />
            </Array>
          </mxGeometry>
        </mxCell>
        <mxCell id="gfhurY05JhWp2dZjsDzm-29" value="提取表格頁資訊1.PDFReaderUtils.extractTextFromPdf&lt;div&gt;&lt;br&gt;&lt;/div&gt;" style="whiteSpace=wrap;html=1;" vertex="1" parent="WIyWlLk6GJQsqaUBKTNV-1">
          <mxGeometry x="45" y="650" width="250" height="50" as="geometry" />
        </mxCell>
        <mxCell id="gfhurY05JhWp2dZjsDzm-34" value="" style="edgeStyle=none;rounded=0;orthogonalLoop=1;jettySize=auto;html=1;" edge="1" parent="WIyWlLk6GJQsqaUBKTNV-1" source="gfhurY05JhWp2dZjsDzm-31" target="gfhurY05JhWp2dZjsDzm-33">
          <mxGeometry relative="1" as="geometry" />
        </mxCell>
        <mxCell id="gfhurY05JhWp2dZjsDzm-31" value="&lt;table&gt;&lt;tbody&gt;&lt;tr&gt;&lt;td data-col-size=&quot;sm&quot; data-end=&quot;1000&quot; data-start=&quot;983&quot;&gt;擷取條碼與金額&lt;br&gt;&lt;table&gt;&lt;tbody&gt;&lt;tr&gt;&lt;td data-col-size=&quot;sm&quot; data-end=&quot;1000&quot; data-start=&quot;983&quot;&gt;&lt;/td&gt;&lt;/tr&gt;&lt;/tbody&gt;&lt;/table&gt;&lt;table&gt;&lt;tbody&gt;&lt;tr&gt;&lt;td data-end=&quot;1057&quot; data-start=&quot;1000&quot; data-col-size=&quot;md&quot;&gt;&lt;code data-end=&quot;1024&quot; data-start=&quot;1002&quot;&gt;extractBarcodeNumber&lt;/code&gt;, &lt;code data-end=&quot;1041&quot; data-start=&quot;1026&quot;&gt;paymentAmount&lt;/code&gt;&lt;/td&gt;&lt;/tr&gt;&lt;/tbody&gt;&lt;/table&gt;&lt;/td&gt;&lt;/tr&gt;&lt;/tbody&gt;&lt;/table&gt;&lt;table&gt;&lt;tbody&gt;&lt;tr&gt;&lt;td data-end=&quot;1057&quot; data-start=&quot;1000&quot; data-col-size=&quot;md&quot;&gt;&lt;/td&gt;&lt;/tr&gt;&lt;/tbody&gt;&lt;/table&gt;" style="whiteSpace=wrap;html=1;" vertex="1" parent="WIyWlLk6GJQsqaUBKTNV-1">
          <mxGeometry x="319.25" y="70" width="170" height="60" as="geometry" />
        </mxCell>
        <mxCell id="gfhurY05JhWp2dZjsDzm-36" value="" style="edgeStyle=none;rounded=0;orthogonalLoop=1;jettySize=auto;html=1;" edge="1" parent="WIyWlLk6GJQsqaUBKTNV-1" source="gfhurY05JhWp2dZjsDzm-33" target="gfhurY05JhWp2dZjsDzm-35">
          <mxGeometry relative="1" as="geometry" />
        </mxCell>
        <mxCell id="gfhurY05JhWp2dZjsDzm-33" value="&lt;table&gt;&lt;tbody&gt;&lt;tr&gt;&lt;td data-col-size=&quot;sm&quot; data-end=&quot;1000&quot; data-start=&quot;983&quot;&gt;&lt;table&gt;&lt;tbody&gt;&lt;tr&gt;&lt;td data-col-size=&quot;sm&quot; data-end=&quot;1078&quot; data-start=&quot;1058&quot;&gt;&lt;br&gt;寫入 PDF 頁面&lt;/td&gt;&lt;/tr&gt;&lt;/tbody&gt;&lt;/table&gt;&lt;table&gt;&lt;tbody&gt;&lt;tr&gt;&lt;td data-col-size=&quot;md&quot; data-end=&quot;1136&quot; data-start=&quot;1078&quot;&gt;&lt;/td&gt;&lt;/tr&gt;&lt;/tbody&gt;&lt;/table&gt;&lt;table&gt;&lt;tbody&gt;&lt;tr&gt;&lt;td data-col-size=&quot;sm&quot; data-end=&quot;1000&quot; data-start=&quot;983&quot;&gt;&lt;/td&gt;&lt;/tr&gt;&lt;/tbody&gt;&lt;/table&gt;&lt;/td&gt;&lt;/tr&gt;&lt;/tbody&gt;&lt;/table&gt;&lt;table&gt;&lt;tbody&gt;&lt;tr data-end=&quot;1136&quot; data-start=&quot;1058&quot;&gt;&lt;td data-col-size=&quot;md&quot; data-end=&quot;1136&quot; data-start=&quot;1078&quot;&gt;&lt;code data-end=&quot;1112&quot; data-start=&quot;1080&quot;&gt;TextAppenderUtils.addText(...)&lt;/code&gt;&lt;/td&gt;&lt;/tr&gt;&lt;/tbody&gt;&lt;/table&gt;&lt;table&gt;&lt;tbody&gt;&lt;tr data-end=&quot;1215&quot; data-start=&quot;1137&quot;&gt;&lt;td data-col-size=&quot;sm&quot; data-end=&quot;1157&quot; data-start=&quot;1137&quot;&gt;&lt;/td&gt;&lt;/tr&gt;&lt;/tbody&gt;&lt;/table&gt;&lt;br&gt;&lt;table&gt;&lt;tbody&gt;&lt;tr&gt;&lt;td data-end=&quot;1057&quot; data-start=&quot;1000&quot; data-col-size=&quot;md&quot;&gt;&lt;/td&gt;&lt;/tr&gt;&lt;/tbody&gt;&lt;/table&gt;" style="whiteSpace=wrap;html=1;" vertex="1" parent="WIyWlLk6GJQsqaUBKTNV-1">
          <mxGeometry x="313.75" y="190" width="181" height="60" as="geometry" />
        </mxCell>
        <mxCell id="gfhurY05JhWp2dZjsDzm-38" value="" style="edgeStyle=none;rounded=0;orthogonalLoop=1;jettySize=auto;html=1;" edge="1" parent="WIyWlLk6GJQsqaUBKTNV-1" source="gfhurY05JhWp2dZjsDzm-35" target="gfhurY05JhWp2dZjsDzm-37">
          <mxGeometry relative="1" as="geometry" />
        </mxCell>
        <mxCell id="gfhurY05JhWp2dZjsDzm-35" value="&lt;br&gt;&lt;table&gt;&lt;tbody&gt;&lt;tr&gt;&lt;td data-col-size=&quot;sm&quot; data-end=&quot;1157&quot; data-start=&quot;1137&quot;&gt;插入圖片&lt;/td&gt;&lt;/tr&gt;&lt;/tbody&gt;&lt;/table&gt;&lt;table&gt;&lt;tbody&gt;&lt;tr&gt;&lt;td data-col-size=&quot;md&quot; data-end=&quot;1215&quot; data-start=&quot;1157&quot;&gt;&lt;/td&gt;&lt;/tr&gt;&lt;/tbody&gt;&lt;/table&gt;&lt;table&gt;&lt;tbody&gt;&lt;tr data-end=&quot;1215&quot; data-start=&quot;1137&quot;&gt;&lt;td data-col-size=&quot;md&quot; data-end=&quot;1215&quot; data-start=&quot;1157&quot;&gt;&lt;code data-end=&quot;1185&quot; data-start=&quot;1159&quot;&gt;PicInsert.insertPic(...)&lt;/code&gt;&lt;/td&gt;&lt;/tr&gt;&lt;/tbody&gt;&lt;/table&gt;&lt;table&gt;&lt;tbody&gt;&lt;tr data-end=&quot;1296&quot; data-start=&quot;1216&quot;&gt;&lt;td data-col-size=&quot;sm&quot; data-end=&quot;1238&quot; data-start=&quot;1216&quot;&gt;&lt;/td&gt;&lt;/tr&gt;&lt;/tbody&gt;&lt;/table&gt;" style="whiteSpace=wrap;html=1;" vertex="1" parent="WIyWlLk6GJQsqaUBKTNV-1">
          <mxGeometry x="344.25" y="300" width="120" height="60" as="geometry" />
        </mxCell>
        <mxCell id="gfhurY05JhWp2dZjsDzm-37" value="&lt;br&gt;&lt;table&gt;&lt;tbody&gt;&lt;tr&gt;&lt;td data-col-size=&quot;sm&quot; data-end=&quot;1238&quot; data-start=&quot;1216&quot;&gt;儲存 PDF&lt;/td&gt;&lt;/tr&gt;&lt;/tbody&gt;&lt;/table&gt;&lt;table&gt;&lt;tbody&gt;&lt;tr&gt;&lt;td data-end=&quot;1296&quot; data-start=&quot;1238&quot; data-col-size=&quot;md&quot;&gt;&lt;/td&gt;&lt;/tr&gt;&lt;/tbody&gt;&lt;/table&gt;&lt;div class=&quot;_tableContainer_16hzy_1&quot;&gt;&lt;div class=&quot;_tableWrapper_16hzy_14 group flex w-fit flex-col-reverse&quot; tabindex=&quot;-1&quot;&gt;&lt;table class=&quot;w-fit min-w-(--thread-content-width)&quot; data-end=&quot;1296&quot; data-start=&quot;368&quot;&gt;&lt;tbody data-end=&quot;1296&quot; data-start=&quot;524&quot;&gt;&lt;tr data-end=&quot;1296&quot; data-start=&quot;1216&quot;&gt;&lt;td data-end=&quot;1296&quot; data-start=&quot;1238&quot; data-col-size=&quot;md&quot;&gt;&lt;code data-end=&quot;1266&quot; data-start=&quot;1240&quot;&gt;sourceDocument.save(...)&lt;/code&gt;&lt;/td&gt;&lt;/tr&gt;&lt;/tbody&gt;&lt;/table&gt;&lt;div class=&quot;sticky end-(--thread-content-margin) h-0 self-end select-none&quot;&gt;&lt;div class=&quot;absolute end-0 flex items-end&quot;&gt;&lt;span data-state=&quot;closed&quot; class=&quot;&quot;&gt;&lt;button class=&quot;bg-token-bg-primary hover:bg-token-bg-tertiary text-token-text-secondary my-1 rounded-sm p-1 transition-opacity group-[:not(:hover):not(:focus-within)]:pointer-events-none group-[:not(:hover):not(:focus-within)]:opacity-0&quot;&gt;&lt;svg class=&quot;icon-md-heavy&quot; xmlns=&quot;http://www.w3.org/2000/svg&quot; fill=&quot;none&quot; viewBox=&quot;0 0 24 24&quot; height=&quot;24&quot; width=&quot;24&quot;&gt;&lt;path fill=&quot;currentColor&quot; d=&quot;M7 5C7 3.34315 8.34315 2 10 2H19C20.6569 2 22 3.34315 22 5V14C22 15.6569 20.6569 17 19 17H17V19C17 20.6569 15.6569 22 14 22H5C3.34315 22 2 20.6569 2 19V10C2 8.34315 3.34315 7 5 7H7V5ZM9 7H14C15.6569 7 17 8.34315 17 10V15H19C19.5523 15 20 14.5523 20 14V5C20 4.44772 19.5523 4 19 4H10C9.44772 4 9 4.44772 9 5V7ZM5 9C4.44772 9 4 9.44772 4 10V19C4 19.5523 4.44772 20 5 20H14C14.5523 20 15 19.5523 15 19V10C15 9.44772 14.5523 9 14 9H5Z&quot; clip-rule=&quot;evenodd&quot; fill-rule=&quot;evenodd&quot;&gt;&lt;/path&gt;&lt;/svg&gt;&lt;/button&gt;&lt;/span&gt;&lt;/div&gt;&lt;/div&gt;&lt;/div&gt;&lt;/div&gt;" style="whiteSpace=wrap;html=1;" vertex="1" parent="WIyWlLk6GJQsqaUBKTNV-1">
          <mxGeometry x="344" y="400" width="139.5" height="70" as="geometry" />
        </mxCell>
      </root>
    </mxGraphModel>
  </diagram>
</mxfile>
